<svg xmlns="http://www.w3.org/2000/svg" xmlns:xlink="http://www.w3.org/1999/xlink" contentStyleType="text/css" data-diagram-type="CLASS" height="440px" preserveAspectRatio="none" style="width:1788px;height:440px;background:#FFFFFF;" version="1.1" viewBox="0 0 1788 440" width="1788px" zoomAndPan="magnify"><defs/><g><!--class BaseEntity--><g id="elem_BaseEntity"><rect codeLine="2" fill="#F1F1F1" height="64.2969" id="BaseEntity" rx="2.5" ry="2.5" style="stroke:#181818;stroke-width:0.5;" width="106.9629" x="631.44" y="369"/><ellipse cx="646.44" cy="385" fill="#A9DCDF" rx="11" ry="11" style="stroke:#181818;stroke-width:1;"/><path d="M646.5494,380.3438 L645.3931,385.4219 L647.7213,385.4219 L646.5494,380.3438 Z M645.065,378.1094 L648.0494,378.1094 L651.4088,390.5 L648.9556,390.5 L648.19,387.4375 L644.9088,387.4375 L644.1588,390.5 L641.7213,390.5 L645.065,378.1094 Z " fill="#000000"/><text fill="#000000" font-family="sans-serif" font-size="14" font-style="italic" lengthAdjust="spacing" textLength="74.9629" x="660.44" y="389.8467">BaseEntity</text><line style="stroke:#181818;stroke-width:0.5;" x1="632.44" x2="737.4029" y1="401" y2="401"/><ellipse cx="642.44" cy="414.6484" fill="transparent" rx="3" ry="3" style="stroke:#038048;stroke-width:1;"/><text fill="#000000" font-family="sans-serif" font-size="14" lengthAdjust="spacing" textLength="54.6807" x="651.44" y="417.9951">Id: Guid</text><line style="stroke:#181818;stroke-width:0.5;" x1="632.44" x2="737.4029" y1="425.2969" y2="425.2969"/></g><!--class EmployeeFeatures--><g id="elem_EmployeeFeatures"><rect codeLine="6" fill="#F1F1F1" height="64.2969" id="EmployeeFeatures" rx="2.5" ry="2.5" style="stroke:#181818;stroke-width:0.5;" width="239.999" x="1281.94" y="220.5"/><ellipse cx="1332.3858" cy="236.5" fill="#A9DCDF" rx="11" ry="11" style="stroke:#181818;stroke-width:1;"/><path d="M1332.4952,231.8438 L1331.3389,236.9219 L1333.6671,236.9219 L1332.4952,231.8438 Z M1331.0108,229.6094 L1333.9952,229.6094 L1337.3546,242 L1334.9014,242 L1334.1358,238.9375 L1330.8546,238.9375 L1330.1046,242 L1327.6671,242 L1331.0108,229.6094 Z " fill="#000000"/><text fill="#000000" font-family="sans-serif" font-size="14" font-style="italic" lengthAdjust="spacing" textLength="130.6074" x="1352.8858" y="241.3467">EmployeeFeatures</text><line style="stroke:#181818;stroke-width:0.5;" x1="1282.94" x2="1520.939" y1="252.5" y2="252.5"/><line style="stroke:#181818;stroke-width:0.5;" x1="1282.94" x2="1520.939" y1="260.5" y2="260.5"/><ellipse cx="1292.94" cy="274.1484" fill="#84BE84" rx="3" ry="3" style="stroke:#038048;stroke-width:1;"/><text fill="#000000" font-family="sans-serif" font-size="14" font-style="italic" lengthAdjust="spacing" textLength="213.999" x="1301.94" y="277.4951">GetEnabledFeatures(): string[]</text></g><!--class Movie--><g id="elem_Movie"><rect codeLine="11" fill="#F1F1F1" height="113.1875" id="Movie" rx="2.5" ry="2.5" style="stroke:#181818;stroke-width:0.5;" width="441.5225" x="56.94" y="196"/><ellipse cx="252.7349" cy="212" fill="#ADD1B2" rx="11" ry="11" style="stroke:#181818;stroke-width:1;"/><path d="M255.7037,217.6406 Q255.1255,217.9375 254.4849,218.0781 Q253.8443,218.2344 253.1412,218.2344 Q250.6412,218.2344 249.313,216.5938 Q248.0005,214.9375 248.0005,211.8125 Q248.0005,208.6875 249.313,207.0313 Q250.6412,205.375 253.1412,205.375 Q253.8443,205.375 254.4849,205.5313 Q255.1412,205.6875 255.7037,205.9844 L255.7037,208.7031 Q255.0787,208.125 254.4849,207.8594 Q253.8912,207.5781 253.2662,207.5781 Q251.9224,207.5781 251.2349,208.6563 Q250.5474,209.7188 250.5474,211.8125 Q250.5474,213.9063 251.2349,214.9844 Q251.9224,216.0469 253.2662,216.0469 Q253.8912,216.0469 254.4849,215.7813 Q255.0787,215.5 255.7037,214.9219 L255.7037,217.6406 Z " fill="#000000"/><text fill="#000000" font-family="sans-serif" font-size="14" lengthAdjust="spacing" textLength="41.4326" x="273.2349" y="216.8467">Movie</text><line style="stroke:#181818;stroke-width:0.5;" x1="57.94" x2="497.4625" y1="228" y2="228"/><rect fill="transparent" height="6" style="stroke:#C82930;stroke-width:1;" width="6" x="64.94" y="238.6484"/><text fill="#000000" font-family="sans-serif" font-size="14" lengthAdjust="spacing" textLength="79.7891" x="76.94" y="244.9951">Title: string</text><rect fill="transparent" height="6" style="stroke:#C82930;stroke-width:1;" width="6" x="64.94" y="254.9453"/><text fill="#000000" font-family="sans-serif" font-size="14" lengthAdjust="spacing" textLength="129.0898" x="76.94" y="261.292">Description: string</text><rect fill="transparent" height="6" style="stroke:#C82930;stroke-width:1;" width="6" x="64.94" y="271.2422"/><text fill="#000000" font-family="sans-serif" font-size="14" lengthAdjust="spacing" textLength="143.3359" x="76.94" y="277.5889">DurationMinutes: int</text><line style="stroke:#181818;stroke-width:0.5;" x1="57.94" x2="497.4625" y1="284.8906" y2="284.8906"/><ellipse cx="67.94" cy="298.5391" fill="#84BE84" rx="3" ry="3" style="stroke:#038048;stroke-width:1;"/><text fill="#000000" font-family="sans-serif" font-size="14" lengthAdjust="spacing" textLength="415.5225" x="76.94" y="301.8857">Movie(title: string, description: string, durationMinutes: int)</text></g><!--class CinemaHall--><g id="elem_CinemaHall"><rect codeLine="18" fill="#F1F1F1" height="96.8906" id="CinemaHall" rx="2.5" ry="2.5" style="stroke:#181818;stroke-width:0.5;" width="301.6592" x="533.94" y="204"/><ellipse cx="640.3926" cy="220" fill="#ADD1B2" rx="11" ry="11" style="stroke:#181818;stroke-width:1;"/><path d="M643.3614,225.6406 Q642.7833,225.9375 642.1426,226.0781 Q641.502,226.2344 640.7989,226.2344 Q638.2989,226.2344 636.9708,224.5938 Q635.6583,222.9375 635.6583,219.8125 Q635.6583,216.6875 636.9708,215.0313 Q638.2989,213.375 640.7989,213.375 Q641.502,213.375 642.1426,213.5313 Q642.7989,213.6875 643.3614,213.9844 L643.3614,216.7031 Q642.7364,216.125 642.1426,215.8594 Q641.5489,215.5781 640.9239,215.5781 Q639.5801,215.5781 638.8926,216.6563 Q638.2051,217.7188 638.2051,219.8125 Q638.2051,221.9063 638.8926,222.9844 Q639.5801,224.0469 640.9239,224.0469 Q641.5489,224.0469 642.1426,223.7813 Q642.7364,223.5 643.3614,222.9219 L643.3614,225.6406 Z " fill="#000000"/><text fill="#000000" font-family="sans-serif" font-size="14" lengthAdjust="spacing" textLength="80.2539" x="660.8926" y="224.8467">CinemaHall</text><line style="stroke:#181818;stroke-width:0.5;" x1="534.94" x2="834.5992" y1="236" y2="236"/><rect fill="transparent" height="6" style="stroke:#C82930;stroke-width:1;" width="6" x="541.94" y="246.6484"/><text fill="#000000" font-family="sans-serif" font-size="14" lengthAdjust="spacing" textLength="90.6582" x="553.94" y="252.9951">Name: string</text><rect fill="transparent" height="6" style="stroke:#C82930;stroke-width:1;" width="6" x="541.94" y="262.9453"/><text fill="#000000" font-family="sans-serif" font-size="14" lengthAdjust="spacing" textLength="88.6006" x="553.94" y="269.292">Capacity: int</text><line style="stroke:#181818;stroke-width:0.5;" x1="534.94" x2="834.5992" y1="276.5938" y2="276.5938"/><ellipse cx="544.94" cy="290.2422" fill="#84BE84" rx="3" ry="3" style="stroke:#038048;stroke-width:1;"/><text fill="#000000" font-family="sans-serif" font-size="14" lengthAdjust="spacing" textLength="275.6592" x="553.94" y="293.5889">CinemaHall(name: string, capacity: int)</text></g><!--class ScheduleItem--><g id="elem_ScheduleItem"><rect codeLine="24" fill="#F1F1F1" height="129.4844" id="ScheduleItem" rx="2.5" ry="2.5" style="stroke:#181818;stroke-width:0.5;" width="503.791" x="25.94" y="7"/><ellipse cx="225.4844" cy="23" fill="#ADD1B2" rx="11" ry="11" style="stroke:#181818;stroke-width:1;"/><path d="M228.4532,28.6406 Q227.8751,28.9375 227.2344,29.0781 Q226.5938,29.2344 225.8907,29.2344 Q223.3907,29.2344 222.0626,27.5938 Q220.7501,25.9375 220.7501,22.8125 Q220.7501,19.6875 222.0626,18.0313 Q223.3907,16.375 225.8907,16.375 Q226.5938,16.375 227.2344,16.5313 Q227.8907,16.6875 228.4532,16.9844 L228.4532,19.7031 Q227.8282,19.125 227.2344,18.8594 Q226.6407,18.5781 226.0157,18.5781 Q224.6719,18.5781 223.9844,19.6563 Q223.2969,20.7188 223.2969,22.8125 Q223.2969,24.9063 223.9844,25.9844 Q224.6719,27.0469 226.0157,27.0469 Q226.6407,27.0469 227.2344,26.7813 Q227.8282,26.5 228.4532,25.9219 L228.4532,28.6406 Z " fill="#000000"/><text fill="#000000" font-family="sans-serif" font-size="14" lengthAdjust="spacing" textLength="96.2021" x="245.9844" y="27.8467">ScheduleItem</text><line style="stroke:#181818;stroke-width:0.5;" x1="26.94" x2="528.731" y1="39" y2="39"/><ellipse cx="36.94" cy="52.6484" fill="transparent" rx="3" ry="3" style="stroke:#038048;stroke-width:1;"/><text fill="#000000" font-family="sans-serif" font-size="14" lengthAdjust="spacing" textLength="92.0322" x="45.94" y="55.9951">Movie: Movie</text><ellipse cx="36.94" cy="68.9453" fill="transparent" rx="3" ry="3" style="stroke:#038048;stroke-width:1;"/><text fill="#000000" font-family="sans-serif" font-size="14" lengthAdjust="spacing" textLength="169.6748" x="45.94" y="72.292">CinemaHall: CinemaHall</text><ellipse cx="36.94" cy="85.2422" fill="transparent" rx="3" ry="3" style="stroke:#038048;stroke-width:1;"/><text fill="#000000" font-family="sans-serif" font-size="14" lengthAdjust="spacing" textLength="146.2139" x="45.94" y="88.5889">StartTime: DateTime</text><line style="stroke:#181818;stroke-width:0.5;" x1="26.94" x2="528.731" y1="95.8906" y2="95.8906"/><rect fill="#F24D5C" height="6" style="stroke:#C82930;stroke-width:1;" width="6" x="33.94" y="106.5391"/><text fill="#000000" font-family="sans-serif" font-size="14" lengthAdjust="spacing" textLength="107.126" x="45.94" y="112.8857">ScheduleItem()</text><ellipse cx="36.94" cy="125.8359" fill="#84BE84" rx="3" ry="3" style="stroke:#038048;stroke-width:1;"/><text fill="#000000" font-family="sans-serif" font-size="14" lengthAdjust="spacing" textLength="477.791" x="45.94" y="129.1826">ScheduleItem(movie: Movie, hall: CinemaHall, startTime: DateTime)</text></g><!--class Employee--><g id="elem_Employee"><rect codeLine="32" fill="#F1F1F1" height="96.8906" id="Employee" rx="2.5" ry="2.5" style="stroke:#181818;stroke-width:0.5;" width="148.7119" x="884.44" y="23"/><ellipse cx="920.7588" cy="39" fill="#ADD1B2" rx="11" ry="11" style="stroke:#181818;stroke-width:1;"/><path d="M923.7275,44.6406 Q923.1494,44.9375 922.5088,45.0781 Q921.8681,45.2344 921.165,45.2344 Q918.665,45.2344 917.3369,43.5938 Q916.0244,41.9375 916.0244,38.8125 Q916.0244,35.6875 917.3369,34.0313 Q918.665,32.375 921.165,32.375 Q921.8681,32.375 922.5088,32.5313 Q923.165,32.6875 923.7275,32.9844 L923.7275,35.7031 Q923.1025,35.125 922.5088,34.8594 Q921.915,34.5781 921.29,34.5781 Q919.9463,34.5781 919.2588,35.6563 Q918.5713,36.7188 918.5713,38.8125 Q918.5713,40.9063 919.2588,41.9844 Q919.9463,43.0469 921.29,43.0469 Q921.915,43.0469 922.5088,42.7813 Q923.1025,42.5 923.7275,41.9219 L923.7275,44.6406 Z " fill="#000000"/><text fill="#000000" font-family="sans-serif" font-size="14" lengthAdjust="spacing" textLength="69.3369" x="939.4963" y="43.8467">Employee</text><line style="stroke:#181818;stroke-width:0.5;" x1="885.44" x2="1032.1519" y1="55" y2="55"/><ellipse cx="895.44" cy="68.6484" fill="transparent" rx="3" ry="3" style="stroke:#038048;stroke-width:1;"/><text fill="#000000" font-family="sans-serif" font-size="14" lengthAdjust="spacing" textLength="90.6582" x="904.44" y="71.9951">Name: string</text><ellipse cx="895.44" cy="84.9453" fill="transparent" rx="3" ry="3" style="stroke:#038048;stroke-width:1;"/><text fill="#000000" font-family="sans-serif" font-size="14" lengthAdjust="spacing" textLength="80.1514" x="904.44" y="88.292">Role: string</text><ellipse cx="895.44" cy="101.2422" fill="transparent" rx="3" ry="3" style="stroke:#038048;stroke-width:1;"/><text fill="#000000" font-family="sans-serif" font-size="14" lengthAdjust="spacing" textLength="122.7119" x="904.44" y="104.5889">Account: Account</text><line style="stroke:#181818;stroke-width:0.5;" x1="885.44" x2="1032.1519" y1="111.8906" y2="111.8906"/></g><!--class Account--><g id="elem_Account"><rect codeLine="38" fill="#F1F1F1" height="96.8906" id="Account" rx="2.5" ry="2.5" style="stroke:#181818;stroke-width:0.5;" width="173.8408" x="941.94" y="204"/><ellipse cx="996.2242" cy="220" fill="#ADD1B2" rx="11" ry="11" style="stroke:#181818;stroke-width:1;"/><path d="M999.1929,225.6406 Q998.6148,225.9375 997.9742,226.0781 Q997.3336,226.2344 996.6304,226.2344 Q994.1304,226.2344 992.8023,224.5938 Q991.4898,222.9375 991.4898,219.8125 Q991.4898,216.6875 992.8023,215.0313 Q994.1304,213.375 996.6304,213.375 Q997.3336,213.375 997.9742,213.5313 Q998.6304,213.6875 999.1929,213.9844 L999.1929,216.7031 Q998.5679,216.125 997.9742,215.8594 Q997.3804,215.5781 996.7554,215.5781 Q995.4117,215.5781 994.7242,216.6563 Q994.0367,217.7188 994.0367,219.8125 Q994.0367,221.9063 994.7242,222.9844 Q995.4117,224.0469 996.7554,224.0469 Q997.3804,224.0469 997.9742,223.7813 Q998.5679,223.5 999.1929,222.9219 L999.1929,225.6406 Z " fill="#000000"/><text fill="#000000" font-family="sans-serif" font-size="14" lengthAdjust="spacing" textLength="56.7725" x="1016.7242" y="224.8467">Account</text><line style="stroke:#181818;stroke-width:0.5;" x1="942.94" x2="1114.7808" y1="236" y2="236"/><ellipse cx="952.94" cy="249.6484" fill="transparent" rx="3" ry="3" style="stroke:#038048;stroke-width:1;"/><text fill="#000000" font-family="sans-serif" font-size="14" lengthAdjust="spacing" textLength="48.624" x="961.94" y="252.9951">Pin: int</text><ellipse cx="952.94" cy="265.9453" fill="transparent" rx="3" ry="3" style="stroke:#038048;stroke-width:1;"/><text fill="#000000" font-family="sans-serif" font-size="14" lengthAdjust="spacing" textLength="147.8408" x="961.94" y="269.292">Employee: Employee</text><ellipse cx="952.94" cy="282.2422" fill="transparent" rx="3" ry="3" style="stroke:#038048;stroke-width:1;"/><text fill="#000000" font-family="sans-serif" font-size="14" lengthAdjust="spacing" textLength="124.0176" x="961.94" y="285.5889">EmployeeId: Guid</text><line style="stroke:#181818;stroke-width:0.5;" x1="942.94" x2="1114.7808" y1="292.8906" y2="292.8906"/></g><!--class Manager--><g id="elem_Manager"><rect codeLine="45" fill="#F1F1F1" height="64.2969" id="Manager" rx="2.5" ry="2.5" style="stroke:#181818;stroke-width:0.5;" width="239.999" x="1067.94" y="39.5"/><ellipse cx="1153.0064" cy="55.5" fill="#ADD1B2" rx="11" ry="11" style="stroke:#181818;stroke-width:1;"/><path d="M1155.9752,61.1406 Q1155.397,61.4375 1154.7564,61.5781 Q1154.1158,61.7344 1153.4127,61.7344 Q1150.9127,61.7344 1149.5845,60.0938 Q1148.272,58.4375 1148.272,55.3125 Q1148.272,52.1875 1149.5845,50.5313 Q1150.9127,48.875 1153.4127,48.875 Q1154.1158,48.875 1154.7564,49.0313 Q1155.4127,49.1875 1155.9752,49.4844 L1155.9752,52.2031 Q1155.3502,51.625 1154.7564,51.3594 Q1154.1627,51.0781 1153.5377,51.0781 Q1152.1939,51.0781 1151.5064,52.1563 Q1150.8189,53.2188 1150.8189,55.3125 Q1150.8189,57.4063 1151.5064,58.4844 Q1152.1939,59.5469 1153.5377,59.5469 Q1154.1627,59.5469 1154.7564,59.2813 Q1155.3502,59 1155.9752,58.4219 L1155.9752,61.1406 Z " fill="#000000"/><text fill="#000000" font-family="sans-serif" font-size="14" lengthAdjust="spacing" textLength="61.3662" x="1173.5064" y="60.3467">Manager</text><line style="stroke:#181818;stroke-width:0.5;" x1="1068.94" x2="1306.939" y1="71.5" y2="71.5"/><line style="stroke:#181818;stroke-width:0.5;" x1="1068.94" x2="1306.939" y1="79.5" y2="79.5"/><ellipse cx="1078.94" cy="93.1484" fill="#84BE84" rx="3" ry="3" style="stroke:#038048;stroke-width:1;"/><text fill="#000000" font-family="sans-serif" font-size="14" lengthAdjust="spacing" textLength="213.999" x="1087.94" y="96.4951">GetEnabledFeatures(): string[]</text></g><!--class RegularEmployee--><g id="elem_RegularEmployee"><rect codeLine="49" fill="#F1F1F1" height="64.2969" id="RegularEmployee" rx="2.5" ry="2.5" style="stroke:#181818;stroke-width:0.5;" width="239.999" x="1342.94" y="39.5"/><ellipse cx="1396.8585" cy="55.5" fill="#ADD1B2" rx="11" ry="11" style="stroke:#181818;stroke-width:1;"/><path d="M1399.8272,61.1406 Q1399.2491,61.4375 1398.6085,61.5781 Q1397.9678,61.7344 1397.2647,61.7344 Q1394.7647,61.7344 1393.4366,60.0938 Q1392.1241,58.4375 1392.1241,55.3125 Q1392.1241,52.1875 1393.4366,50.5313 Q1394.7647,48.875 1397.2647,48.875 Q1397.9678,48.875 1398.6085,49.0313 Q1399.2647,49.1875 1399.8272,49.4844 L1399.8272,52.2031 Q1399.2022,51.625 1398.6085,51.3594 Q1398.0147,51.0781 1397.3897,51.0781 Q1396.046,51.0781 1395.3585,52.1563 Q1394.671,53.2188 1394.671,55.3125 Q1394.671,57.4063 1395.3585,58.4844 Q1396.046,59.5469 1397.3897,59.5469 Q1398.0147,59.5469 1398.6085,59.2813 Q1399.2022,59 1399.8272,58.4219 L1399.8272,61.1406 Z " fill="#000000"/><text fill="#000000" font-family="sans-serif" font-size="14" lengthAdjust="spacing" textLength="123.6621" x="1417.3585" y="60.3467">RegularEmployee</text><line style="stroke:#181818;stroke-width:0.5;" x1="1343.94" x2="1581.939" y1="71.5" y2="71.5"/><line style="stroke:#181818;stroke-width:0.5;" x1="1343.94" x2="1581.939" y1="79.5" y2="79.5"/><ellipse cx="1353.94" cy="93.1484" fill="#84BE84" rx="3" ry="3" style="stroke:#038048;stroke-width:1;"/><text fill="#000000" font-family="sans-serif" font-size="14" lengthAdjust="spacing" textLength="213.999" x="1362.94" y="96.4951">GetEnabledFeatures(): string[]</text></g><!--class Features--><g id="elem_Features"><rect codeLine="54" fill="#F1F1F1" height="96.8906" id="Features" rx="2.5" ry="2.5" style="stroke:#181818;stroke-width:0.5;" width="162.9033" x="1618.44" y="23"/><ellipse cx="1665.0064" cy="39" fill="#ADD1B2" rx="11" ry="11" style="stroke:#181818;stroke-width:1;"/><path d="M1667.9752,44.6406 Q1667.397,44.9375 1666.7564,45.0781 Q1666.1158,45.2344 1665.4127,45.2344 Q1662.9127,45.2344 1661.5845,43.5938 Q1660.272,41.9375 1660.272,38.8125 Q1660.272,35.6875 1661.5845,34.0313 Q1662.9127,32.375 1665.4127,32.375 Q1666.1158,32.375 1666.7564,32.5313 Q1667.4127,32.6875 1667.9752,32.9844 L1667.9752,35.7031 Q1667.3502,35.125 1666.7564,34.8594 Q1666.1627,34.5781 1665.5377,34.5781 Q1664.1939,34.5781 1663.5064,35.6563 Q1662.8189,36.7188 1662.8189,38.8125 Q1662.8189,40.9063 1663.5064,41.9844 Q1664.1939,43.0469 1665.5377,43.0469 Q1666.1627,43.0469 1666.7564,42.7813 Q1667.3502,42.5 1667.9752,41.9219 L1667.9752,44.6406 Z " fill="#000000"/><text fill="#000000" font-family="sans-serif" font-size="14" lengthAdjust="spacing" textLength="61.2705" x="1685.5064" y="43.8467">Features</text><line style="stroke:#181818;stroke-width:0.5;" x1="1619.44" x2="1780.3433" y1="55" y2="55"/><ellipse cx="1629.44" cy="68.6484" fill="transparent" rx="3" ry="3" style="stroke:#038048;stroke-width:1;"/><text fill="#000000" font-family="sans-serif" font-size="14" lengthAdjust="spacing" text-decoration="underline" textLength="136.9033" x="1638.44" y="71.9951">CinemaHalls: string</text><ellipse cx="1629.44" cy="84.9453" fill="transparent" rx="3" ry="3" style="stroke:#038048;stroke-width:1;"/><text fill="#000000" font-family="sans-serif" font-size="14" lengthAdjust="spacing" text-decoration="underline" textLength="98.082" x="1638.44" y="88.292">Movies: string</text><ellipse cx="1629.44" cy="101.2422" fill="transparent" rx="3" ry="3" style="stroke:#038048;stroke-width:1;"/><text fill="#000000" font-family="sans-serif" font-size="14" lengthAdjust="spacing" text-decoration="underline" textLength="120.9824" x="1638.44" y="104.5889">Schedules: string</text><line style="stroke:#181818;stroke-width:0.5;" x1="1619.44" x2="1780.3433" y1="111.8906" y2="111.8906"/></g><!--link Movie to BaseEntity--><g id="link_Movie_BaseEntity"><path codeLine="61" d="M432.39,309.09 C502.33,334.27 563.5438,356.3038 614.1338,374.5138 " fill="transparent" id="Movie-to-BaseEntity" style="stroke:#181818;stroke-width:1;"/><polygon fill="transparent" points="631.07,380.61,616.1659,368.8684,612.1017,380.1592,631.07,380.61" style="stroke:#181818;stroke-width:1;"/></g><!--link CinemaHall to BaseEntity--><g id="link_CinemaHall_BaseEntity"><path codeLine="62" d="M684.94,301.06 C684.94,323.29 684.94,331.12 684.94,350.82 " fill="transparent" id="CinemaHall-to-BaseEntity" style="stroke:#181818;stroke-width:1;"/><polygon fill="transparent" points="684.94,368.82,690.94,350.82,678.94,350.82,684.94,368.82" style="stroke:#181818;stroke-width:1;"/></g><!--link ScheduleItem to BaseEntity--><g id="link_ScheduleItem_BaseEntity"><path codeLine="63" d="M98.68,136.14 C74.91,152.08 53.7,171.77 38.94,196 C12.82,238.9 6,271.09 38.94,309 C77.74,353.64 465.3243,384.7582 613.3143,395.1582 " fill="transparent" id="ScheduleItem-to-BaseEntity" style="stroke:#181818;stroke-width:1;"/><polygon fill="transparent" points="631.27,396.42,613.7349,389.1729,612.8937,401.1434,631.27,396.42" style="stroke:#181818;stroke-width:1;"/></g><!--link Employee to BaseEntity--><g id="link_Employee_BaseEntity"><path codeLine="64" d="M947.42,120.27 C932.87,172.06 903.43,254.57 852.94,309 C821.58,342.8 791.4153,359.9279 755.1553,374.7279 " fill="transparent" id="Employee-to-BaseEntity" style="stroke:#181818;stroke-width:1;"/><polygon fill="transparent" points="738.49,381.53,757.4226,380.2829,752.8879,369.1728,738.49,381.53" style="stroke:#181818;stroke-width:1;"/></g><!--link Account to BaseEntity--><g id="link_Account_BaseEntity"><path codeLine="65" d="M941.81,296.76 C932.78,300.99 923.7,305.14 914.94,309 C855.4,335.23 802.6191,355.9205 755.6991,373.6405 " fill="transparent" id="Account-to-BaseEntity" style="stroke:#181818;stroke-width:1;"/><polygon fill="transparent" points="738.86,380,757.819,379.2535,753.5793,368.0274,738.86,380" style="stroke:#181818;stroke-width:1;"/></g><!--link Manager to EmployeeFeatures--><g id="link_Manager_EmployeeFeatures"><path codeLine="67" d="M1225.22,103.68 C1264.38,136.43 1311.7932,176.1014 1350.9232,208.8314 " fill="transparent" id="Manager-to-EmployeeFeatures" style="stroke:#181818;stroke-width:1;"/><polygon fill="transparent" points="1364.73,220.38,1354.7727,204.2291,1347.0736,213.4336,1364.73,220.38" style="stroke:#181818;stroke-width:1;"/></g><!--link RegularEmployee to EmployeeFeatures--><g id="link_RegularEmployee_EmployeeFeatures"><path codeLine="68" d="M1452.32,103.68 C1441.15,136.43 1429.5044,170.6116 1418.3544,203.3416 " fill="transparent" id="RegularEmployee-to-EmployeeFeatures" style="stroke:#181818;stroke-width:1;"/><polygon fill="transparent" points="1412.55,220.38,1424.0339,205.2764,1412.6749,201.4067,1412.55,220.38" style="stroke:#181818;stroke-width:1;"/></g><!--link ScheduleItem to Movie--><g id="link_ScheduleItem_Movie"><path codeLine="70" d="M277.94,136.11 C277.94,155.61 277.94,170.89 277.94,189.82 " fill="transparent" id="ScheduleItem-to-Movie" style="stroke:#181818;stroke-width:1;"/><polygon fill="#181818" points="277.94,195.82,281.94,186.82,277.94,190.82,273.94,186.82,277.94,195.82" style="stroke:#181818;stroke-width:1;"/></g><!--link ScheduleItem to CinemaHall--><g id="link_ScheduleItem_CinemaHall"><path codeLine="71" d="M422.58,136.11 C473.42,158.47 524.1276,180.7747 571.4276,201.5747 " fill="transparent" id="ScheduleItem-to-CinemaHall" style="stroke:#181818;stroke-width:1;"/><polygon fill="#181818" points="576.92,203.99,570.2916,196.7055,572.343,201.9773,567.0712,204.0287,576.92,203.99" style="stroke:#181818;stroke-width:1;"/></g><!--link Employee to Account--><g id="link_Employee_Account"><path codeLine="72" d="M979.8849,126.058 C989.9649,151.838 997.9955,172.3618 1008.0655,198.1218 " fill="transparent" id="Employee-Account" style="stroke:#181818;stroke-width:1;"/><polygon fill="#181818" points="977.7,120.47,977.252,130.3087,979.5208,125.1267,984.7027,127.3954,977.7,120.47" style="stroke:#181818;stroke-width:1;"/><polygon fill="#181818" points="1010.25,203.71,1010.6987,193.8714,1008.4296,199.0532,1003.2478,196.7841,1010.25,203.71" style="stroke:#181818;stroke-width:1;"/><text fill="#000000" font-family="sans-serif" font-size="13" lengthAdjust="spacing" textLength="8.271" x="971.6269" y="139.7876">1</text><text fill="#000000" font-family="sans-serif" font-size="13" lengthAdjust="spacing" textLength="8.271" x="999.0895" y="192.8781">1</text></g><!--SRC=[ZLJBRjim4BppAnQvs4RiGwz24Q2DtJG71uMJMz73XjhQ12XA45S1ZDJ_NeaFYw8J92SHCylPuN2f6Nn7Io0rMaiMq9IW35Fx5oLPWS-MMvJiULUwCQpu2Ay2u1hkomBkEbMAayXhDrMZwoFH3qBksbxQxtYDPIUu8zuOVDPKnfhvee2ULMR_-yyWEODrNQ4oiArBqbPuvMtzeiZ9hU19iQQuoI5hih9L3QlQJF6knG7SAjCnsM8ufdFavEQS2YsXl5JfmJSa5eDFx-jM6Qhm9seTp3rWDVLsYmtAFhsn-RXdRfBg9SYqD6doA0zKTfhkcQeGgJj0uJ-PQ96Q0aS-ChRyf8PUQsGQLivRAZnV-D8Kgf8kIpXauilU-8LkOZjEGx2S9NCDkrfFWMzIrftX8Yv6gG04fL_AZ6d6BiLvDO7JQPsDblZOq7csqE2UsY3-yOJwNJlQTnhRx92VcU_8Y3u-LZAydVpDUFAKv6qdOPqBtEsymyNR76ddO4VQ3RKzgCOA_xPMgtytoMCNoH3br6GUS_8SI4x4Eynn4VDtHFuB4NdERrVbdcx2qxY0nsEDJg- -NC7NWHmMmUP_]--></g></svg>