<?xml version="1.0" encoding="UTF-8" standalone="no"?><svg xmlns="http://www.w3.org/2000/svg" xmlns:xlink="http://www.w3.org/1999/xlink" contentStyleType="text/css" height="441px" preserveAspectRatio="none" style="width:1535px;height:441px;background:#FFFFFF;" version="1.1" viewBox="0 0 1535 441" width="1535px" zoomAndPan="magnify"><defs/><g><!--MD5=[7d75efcc7d06b347edea0516f6aac1d8]
class BaseEntity--><g id="elem_BaseEntity"><rect codeLine="1" fill="#F1F1F1" height="80.5938" id="BaseEntity" rx="2.5" ry="2.5" style="stroke:#181818;stroke-width:0.5;" width="109" x="852" y="7"/><ellipse cx="868.8" cy="23" fill="#A9DCDF" rx="11" ry="11" style="stroke:#181818;stroke-width:1.0;"/><path d="M868.9094,18.3438 L867.7531,23.4219 L870.0813,23.4219 L868.9094,18.3438 Z M867.425,16.1094 L870.4094,16.1094 L873.7688,28.5 L871.3156,28.5 L870.55,25.4375 L867.2688,25.4375 L866.5188,28.5 L864.0813,28.5 L867.425,16.1094 Z " fill="#000000"/><text fill="#000000" font-family="sans-serif" font-size="14" font-style="italic" lengthAdjust="spacing" textLength="73" x="883.2" y="27.8467">BaseEntity</text><line style="stroke:#181818;stroke-width:0.5;" x1="853" x2="960" y1="39" y2="39"/><ellipse cx="863" cy="52.6484" fill="none" rx="3" ry="3" style="stroke:#038048;stroke-width:1.0;"/><text fill="#000000" font-family="sans-serif" font-size="14" lengthAdjust="spacing" textLength="53" x="872" y="55.9951">Id: Guid</text><line style="stroke:#181818;stroke-width:0.5;" x1="853" x2="960" y1="63.2969" y2="63.2969"/><ellipse cx="863" cy="76.9453" fill="#84BE84" rx="3" ry="3" style="stroke:#038048;stroke-width:1.0;"/><text fill="#000000" font-family="sans-serif" font-size="14" lengthAdjust="spacing" textLength="83" x="872" y="80.292">BaseEntity()</text></g><!--MD5=[09ce52be0ee7de43c61b6e2d59bf108b]
class Person--><g id="elem_Person"><rect codeLine="6" fill="#F1F1F1" height="113.1875" id="Person" rx="2.5" ry="2.5" style="stroke:#181818;stroke-width:0.5;" width="318" x="374.5" y="148"/><ellipse cx="504.75" cy="164" fill="#A9DCDF" rx="11" ry="11" style="stroke:#181818;stroke-width:1.0;"/><path d="M504.8594,159.3438 L503.7031,164.4219 L506.0313,164.4219 L504.8594,159.3438 Z M503.375,157.1094 L506.3594,157.1094 L509.7188,169.5 L507.2656,169.5 L506.5,166.4375 L503.2188,166.4375 L502.4688,169.5 L500.0313,169.5 L503.375,157.1094 Z " fill="#000000"/><text fill="#000000" font-family="sans-serif" font-size="14" font-style="italic" lengthAdjust="spacing" textLength="49" x="525.25" y="168.8467">Person</text><line style="stroke:#181818;stroke-width:0.5;" x1="375.5" x2="691.5" y1="180" y2="180"/><ellipse cx="385.5" cy="193.6484" fill="none" rx="3" ry="3" style="stroke:#038048;stroke-width:1.0;"/><text fill="#000000" font-family="sans-serif" font-size="14" lengthAdjust="spacing" textLength="117" x="394.5" y="196.9951">FirstName: string</text><ellipse cx="385.5" cy="209.9453" fill="none" rx="3" ry="3" style="stroke:#038048;stroke-width:1.0;"/><text fill="#000000" font-family="sans-serif" font-size="14" lengthAdjust="spacing" textLength="116" x="394.5" y="213.292">LastName: string</text><line style="stroke:#181818;stroke-width:0.5;" x1="375.5" x2="691.5" y1="220.5938" y2="220.5938"/><ellipse cx="385.5" cy="234.2422" fill="#84BE84" rx="3" ry="3" style="stroke:#038048;stroke-width:1.0;"/><text fill="#000000" font-family="sans-serif" font-size="14" lengthAdjust="spacing" textLength="292" x="394.5" y="237.5889">Person(firstName: string, lastName: string)</text><ellipse cx="385.5" cy="250.5391" fill="#84BE84" rx="3" ry="3" style="stroke:#038048;stroke-width:1.0;"/><text fill="#000000" font-family="sans-serif" font-size="14" font-style="italic" lengthAdjust="spacing" textLength="114" x="394.5" y="253.8857">GetRole(): string</text></g><!--MD5=[b24ed8d4ae84bae9290d9aab401637c7]
class Manager--><g id="elem_Manager"><rect codeLine="13" fill="#F1F1F1" height="80.5938" id="Manager" rx="2.5" ry="2.5" style="stroke:#181818;stroke-width:0.5;" width="329" x="7" y="337"/><ellipse cx="137.25" cy="353" fill="#ADD1B2" rx="11" ry="11" style="stroke:#181818;stroke-width:1.0;"/><path d="M140.2188,358.6406 Q139.6406,358.9375 139,359.0781 Q138.3594,359.2344 137.6563,359.2344 Q135.1563,359.2344 133.8281,357.5938 Q132.5156,355.9375 132.5156,352.8125 Q132.5156,349.6875 133.8281,348.0313 Q135.1563,346.375 137.6563,346.375 Q138.3594,346.375 139,346.5313 Q139.6563,346.6875 140.2188,346.9844 L140.2188,349.7031 Q139.5938,349.125 139,348.8594 Q138.4063,348.5781 137.7813,348.5781 Q136.4375,348.5781 135.75,349.6563 Q135.0625,350.7188 135.0625,352.8125 Q135.0625,354.9063 135.75,355.9844 Q136.4375,357.0469 137.7813,357.0469 Q138.4063,357.0469 139,356.7813 Q139.5938,356.5 140.2188,355.9219 L140.2188,358.6406 Z " fill="#000000"/><text fill="#000000" font-family="sans-serif" font-size="14" lengthAdjust="spacing" textLength="60" x="157.75" y="357.8467">Manager</text><line style="stroke:#181818;stroke-width:0.5;" x1="8" x2="335" y1="369" y2="369"/><line style="stroke:#181818;stroke-width:0.5;" x1="8" x2="335" y1="377" y2="377"/><ellipse cx="18" cy="390.6484" fill="#84BE84" rx="3" ry="3" style="stroke:#038048;stroke-width:1.0;"/><text fill="#000000" font-family="sans-serif" font-size="14" lengthAdjust="spacing" textLength="303" x="27" y="393.9951">Manager(firstName: string, lastName: string)</text><ellipse cx="18" cy="406.9453" fill="#84BE84" rx="3" ry="3" style="stroke:#038048;stroke-width:1.0;"/><text fill="#000000" font-family="sans-serif" font-size="14" lengthAdjust="spacing" textLength="114" x="27" y="410.292">GetRole(): string</text></g><!--MD5=[7421f545a0d8420c5bec41e74b387d9c]
class Employee--><g id="elem_Employee"><rect codeLine="18" fill="#F1F1F1" height="80.5938" id="Employee" rx="2.5" ry="2.5" style="stroke:#181818;stroke-width:0.5;" width="337" x="371" y="337"/><ellipse cx="501.25" cy="353" fill="#ADD1B2" rx="11" ry="11" style="stroke:#181818;stroke-width:1.0;"/><path d="M504.2188,358.6406 Q503.6406,358.9375 503,359.0781 Q502.3594,359.2344 501.6563,359.2344 Q499.1563,359.2344 497.8281,357.5938 Q496.5156,355.9375 496.5156,352.8125 Q496.5156,349.6875 497.8281,348.0313 Q499.1563,346.375 501.6563,346.375 Q502.3594,346.375 503,346.5313 Q503.6563,346.6875 504.2188,346.9844 L504.2188,349.7031 Q503.5938,349.125 503,348.8594 Q502.4063,348.5781 501.7813,348.5781 Q500.4375,348.5781 499.75,349.6563 Q499.0625,350.7188 499.0625,352.8125 Q499.0625,354.9063 499.75,355.9844 Q500.4375,357.0469 501.7813,357.0469 Q502.4063,357.0469 503,356.7813 Q503.5938,356.5 504.2188,355.9219 L504.2188,358.6406 Z " fill="#000000"/><text fill="#000000" font-family="sans-serif" font-size="14" lengthAdjust="spacing" textLength="68" x="521.75" y="357.8467">Employee</text><line style="stroke:#181818;stroke-width:0.5;" x1="372" x2="707" y1="369" y2="369"/><line style="stroke:#181818;stroke-width:0.5;" x1="372" x2="707" y1="377" y2="377"/><ellipse cx="382" cy="390.6484" fill="#84BE84" rx="3" ry="3" style="stroke:#038048;stroke-width:1.0;"/><text fill="#000000" font-family="sans-serif" font-size="14" lengthAdjust="spacing" textLength="311" x="391" y="393.9951">Employee(firstName: string, lastName: string)</text><ellipse cx="382" cy="406.9453" fill="#84BE84" rx="3" ry="3" style="stroke:#038048;stroke-width:1.0;"/><text fill="#000000" font-family="sans-serif" font-size="14" lengthAdjust="spacing" textLength="114" x="391" y="410.292">GetRole(): string</text></g><!--MD5=[e69084ab16b022bdbef99762ea85e9d6]
class Movie--><g id="elem_Movie"><rect codeLine="23" fill="#F1F1F1" height="113.1875" id="Movie" rx="2.5" ry="2.5" style="stroke:#181818;stroke-width:0.5;" width="428" x="765.5" y="321"/><ellipse cx="955.25" cy="337" fill="#ADD1B2" rx="11" ry="11" style="stroke:#181818;stroke-width:1.0;"/><path d="M958.2188,342.6406 Q957.6406,342.9375 957,343.0781 Q956.3594,343.2344 955.6563,343.2344 Q953.1563,343.2344 951.8281,341.5938 Q950.5156,339.9375 950.5156,336.8125 Q950.5156,333.6875 951.8281,332.0313 Q953.1563,330.375 955.6563,330.375 Q956.3594,330.375 957,330.5313 Q957.6563,330.6875 958.2188,330.9844 L958.2188,333.7031 Q957.5938,333.125 957,332.8594 Q956.4063,332.5781 955.7813,332.5781 Q954.4375,332.5781 953.75,333.6563 Q953.0625,334.7188 953.0625,336.8125 Q953.0625,338.9063 953.75,339.9844 Q954.4375,341.0469 955.7813,341.0469 Q956.4063,341.0469 957,340.7813 Q957.5938,340.5 958.2188,339.9219 L958.2188,342.6406 Z " fill="#000000"/><text fill="#000000" font-family="sans-serif" font-size="14" lengthAdjust="spacing" textLength="40" x="975.75" y="341.8467">Movie</text><line style="stroke:#181818;stroke-width:0.5;" x1="766.5" x2="1192.5" y1="353" y2="353"/><ellipse cx="776.5" cy="366.6484" fill="none" rx="3" ry="3" style="stroke:#038048;stroke-width:1.0;"/><text fill="#000000" font-family="sans-serif" font-size="14" lengthAdjust="spacing" textLength="77" x="785.5" y="369.9951">Title: string</text><ellipse cx="776.5" cy="382.9453" fill="none" rx="3" ry="3" style="stroke:#038048;stroke-width:1.0;"/><text fill="#000000" font-family="sans-serif" font-size="14" lengthAdjust="spacing" textLength="127" x="785.5" y="386.292">Description: string</text><ellipse cx="776.5" cy="399.2422" fill="none" rx="3" ry="3" style="stroke:#038048;stroke-width:1.0;"/><text fill="#000000" font-family="sans-serif" font-size="14" lengthAdjust="spacing" textLength="140" x="785.5" y="402.5889">DurationMinutes: int</text><line style="stroke:#181818;stroke-width:0.5;" x1="766.5" x2="1192.5" y1="409.8906" y2="409.8906"/><ellipse cx="776.5" cy="423.5391" fill="#84BE84" rx="3" ry="3" style="stroke:#038048;stroke-width:1.0;"/><text fill="#000000" font-family="sans-serif" font-size="14" lengthAdjust="spacing" textLength="402" x="785.5" y="426.8857">Movie(title: string, description: string, durationMinutes: int)</text></g><!--MD5=[af64d3c8ecd4e6be41011b482d284417]
class CinemaHall--><g id="elem_CinemaHall"><rect codeLine="30" fill="#F1F1F1" height="96.8906" id="CinemaHall" rx="2.5" ry="2.5" style="stroke:#181818;stroke-width:0.5;" width="289" x="1239" y="329"/><ellipse cx="1341.25" cy="345" fill="#ADD1B2" rx="11" ry="11" style="stroke:#181818;stroke-width:1.0;"/><path d="M1344.2188,350.6406 Q1343.6406,350.9375 1343,351.0781 Q1342.3594,351.2344 1341.6563,351.2344 Q1339.1563,351.2344 1337.8281,349.5938 Q1336.5156,347.9375 1336.5156,344.8125 Q1336.5156,341.6875 1337.8281,340.0313 Q1339.1563,338.375 1341.6563,338.375 Q1342.3594,338.375 1343,338.5313 Q1343.6563,338.6875 1344.2188,338.9844 L1344.2188,341.7031 Q1343.5938,341.125 1343,340.8594 Q1342.4063,340.5781 1341.7813,340.5781 Q1340.4375,340.5781 1339.75,341.6563 Q1339.0625,342.7188 1339.0625,344.8125 Q1339.0625,346.9063 1339.75,347.9844 Q1340.4375,349.0469 1341.7813,349.0469 Q1342.4063,349.0469 1343,348.7813 Q1343.5938,348.5 1344.2188,347.9219 L1344.2188,350.6406 Z " fill="#000000"/><text fill="#000000" font-family="sans-serif" font-size="14" lengthAdjust="spacing" textLength="76" x="1361.75" y="349.8467">CinemaHall</text><line style="stroke:#181818;stroke-width:0.5;" x1="1240" x2="1527" y1="361" y2="361"/><ellipse cx="1250" cy="374.6484" fill="none" rx="3" ry="3" style="stroke:#038048;stroke-width:1.0;"/><text fill="#000000" font-family="sans-serif" font-size="14" lengthAdjust="spacing" textLength="88" x="1259" y="377.9951">Name: string</text><ellipse cx="1250" cy="390.9453" fill="none" rx="3" ry="3" style="stroke:#038048;stroke-width:1.0;"/><text fill="#000000" font-family="sans-serif" font-size="14" lengthAdjust="spacing" textLength="84" x="1259" y="394.292">Capacity: int</text><line style="stroke:#181818;stroke-width:0.5;" x1="1240" x2="1527" y1="401.5938" y2="401.5938"/><ellipse cx="1250" cy="415.2422" fill="#84BE84" rx="3" ry="3" style="stroke:#038048;stroke-width:1.0;"/><text fill="#000000" font-family="sans-serif" font-size="14" lengthAdjust="spacing" textLength="263" x="1259" y="418.5889">CinemaHall(name: string, capacity: int)</text></g><!--MD5=[c5936c30e0b698a396f602bae4f9822c]
class ScheduleItem--><g id="elem_ScheduleItem"><rect codeLine="36" fill="#F1F1F1" height="113.1875" id="ScheduleItem" rx="2.5" ry="2.5" style="stroke:#181818;stroke-width:0.5;" width="537" x="799" y="148"/><ellipse cx="1015.75" cy="164" fill="#ADD1B2" rx="11" ry="11" style="stroke:#181818;stroke-width:1.0;"/><path d="M1018.7188,169.6406 Q1018.1406,169.9375 1017.5,170.0781 Q1016.8594,170.2344 1016.1563,170.2344 Q1013.6563,170.2344 1012.3281,168.5938 Q1011.0156,166.9375 1011.0156,163.8125 Q1011.0156,160.6875 1012.3281,159.0313 Q1013.6563,157.375 1016.1563,157.375 Q1016.8594,157.375 1017.5,157.5313 Q1018.1563,157.6875 1018.7188,157.9844 L1018.7188,160.7031 Q1018.0938,160.125 1017.5,159.8594 Q1016.9063,159.5781 1016.2813,159.5781 Q1014.9375,159.5781 1014.25,160.6563 Q1013.5625,161.7188 1013.5625,163.8125 Q1013.5625,165.9063 1014.25,166.9844 Q1014.9375,168.0469 1016.2813,168.0469 Q1016.9063,168.0469 1017.5,167.7813 Q1018.0938,167.5 1018.7188,166.9219 L1018.7188,169.6406 Z " fill="#000000"/><text fill="#000000" font-family="sans-serif" font-size="14" lengthAdjust="spacing" textLength="95" x="1036.25" y="168.8467">ScheduleItem</text><line style="stroke:#181818;stroke-width:0.5;" x1="800" x2="1335" y1="180" y2="180"/><ellipse cx="810" cy="193.6484" fill="none" rx="3" ry="3" style="stroke:#038048;stroke-width:1.0;"/><text fill="#000000" font-family="sans-serif" font-size="14" lengthAdjust="spacing" textLength="89" x="819" y="196.9951">Movie: Movie</text><ellipse cx="810" cy="209.9453" fill="none" rx="3" ry="3" style="stroke:#038048;stroke-width:1.0;"/><text fill="#000000" font-family="sans-serif" font-size="14" lengthAdjust="spacing" textLength="161" x="819" y="213.292">CinemaHall: CinemaHall</text><ellipse cx="810" cy="226.2422" fill="none" rx="3" ry="3" style="stroke:#038048;stroke-width:1.0;"/><text fill="#000000" font-family="sans-serif" font-size="14" lengthAdjust="spacing" textLength="142" x="819" y="229.5889">StartTime: DateTime</text><line style="stroke:#181818;stroke-width:0.5;" x1="800" x2="1335" y1="236.8906" y2="236.8906"/><ellipse cx="810" cy="250.5391" fill="#84BE84" rx="3" ry="3" style="stroke:#038048;stroke-width:1.0;"/><text fill="#000000" font-family="sans-serif" font-size="14" lengthAdjust="spacing" textLength="511" x="819" y="253.8857">ScheduleItem(movie: Movie, cinemaHall: CinemaHall, startTime: DateTime)</text></g><!--MD5=[e972973c7f76b0db338112519443ef31]
reverse link BaseEntity to Person--><g id="link_BaseEntity_Person"><path codeLine="43" d="M833.29,78.92 C786.05,98.55 723.21,124.67 667.27,147.91 " fill="none" id="BaseEntity-backto-Person" style="stroke:#181818;stroke-width:1.0;"/><polygon fill="none" points="830.71,72.42,851.86,71.2,836.08,85.34,830.71,72.42" style="stroke:#181818;stroke-width:1.0;"/></g><!--MD5=[030269a2b16433bb8a66e28599b4c99c]
reverse link BaseEntity to Movie--><g id="link_BaseEntity_Movie"><path codeLine="44" d="M835.09,88.05 C813.85,103.72 793.15,123.83 781.5,148 C759.69,193.24 756.49,217.45 781.5,261 C795.52,285.42 816.92,305.16 840.54,320.94 " fill="none" id="BaseEntity-backto-Movie" style="stroke:#181818;stroke-width:1.0;"/><polygon fill="none" points="831.23,82.21,851.69,76.69,839.14,93.76,831.23,82.21" style="stroke:#181818;stroke-width:1.0;"/></g><!--MD5=[df35f279baf6199712478c7bb0dd67c1]
reverse link BaseEntity to CinemaHall--><g id="link_BaseEntity_CinemaHall"><path codeLine="45" d="M981.32,54.92 C1095.23,66.3 1304.17,94.1 1353.5,148 C1398.07,196.7 1397.65,277.55 1391.72,328.87 " fill="none" id="BaseEntity-backto-CinemaHall" style="stroke:#181818;stroke-width:1.0;"/><polygon fill="none" points="980.45,61.86,961.22,52.98,981.8,47.93,980.45,61.86" style="stroke:#181818;stroke-width:1.0;"/></g><!--MD5=[47c89b60ced47fd6fcd0df3dd8339616]
reverse link BaseEntity to ScheduleItem--><g id="link_BaseEntity_ScheduleItem"><path codeLine="46" d="M962.36,102.28 C977.71,117.05 994.38,133.1 1009.83,147.98 " fill="none" id="BaseEntity-backto-ScheduleItem" style="stroke:#181818;stroke-width:1.0;"/><polygon fill="none" points="957.1,106.93,947.54,88.01,966.81,96.84,957.1,106.93" style="stroke:#181818;stroke-width:1.0;"/></g><!--MD5=[174fbaa7bbaf1275b9599c3e850734b3]
reverse link Person to Manager--><g id="link_Person_Manager"><path codeLine="48" d="M397.87,269.57 C349.97,292.19 297.55,316.96 255.22,336.95 " fill="none" id="Person-backto-Manager" style="stroke:#181818;stroke-width:1.0;"/><polygon fill="none" points="394.9,263.23,415.97,261.02,400.87,275.89,394.9,263.23" style="stroke:#181818;stroke-width:1.0;"/></g><!--MD5=[1ca9c1e22cc1eb729b1002e4b7ac82ab]
reverse link Person to Employee--><g id="link_Person_Employee"><path codeLine="49" d="M536.15,281.08 C536.83,300.35 537.53,320.3 538.11,336.95 " fill="none" id="Person-backto-Employee" style="stroke:#181818;stroke-width:1.0;"/><polygon fill="none" points="529.15,281.25,535.45,261.02,543.15,280.76,529.15,281.25" style="stroke:#181818;stroke-width:1.0;"/></g><!--MD5=[a58a092b34a45ff24edd3d52f1827e2d]
link ScheduleItem to Movie--><g id="link_ScheduleItem_Movie"><path codeLine="51" d="M1038.93,261.02 C1029.81,278.73 1019.69,298.41 1010.42,316.42 " fill="none" id="ScheduleItem-to-Movie" style="stroke:#181818;stroke-width:1.0;"/><polygon fill="#181818" points="1008.08,320.97,1015.7542,314.7969,1010.3674,316.5239,1008.6404,311.1371,1008.08,320.97" style="stroke:#181818;stroke-width:1.0;"/></g><!--MD5=[f7c510c990705c27ce09ea45358f58a6]
link ScheduleItem to CinemaHall--><g id="link_ScheduleItem_CinemaHall"><path codeLine="52" d="M1170.1,261.02 C1208.97,282.06 1252.98,305.87 1290.88,326.38 " fill="none" id="ScheduleItem-to-CinemaHall" style="stroke:#181818;stroke-width:1.0;"/><polygon fill="#181818" points="1295.47,328.87,1289.4648,321.0638,1291.0745,326.4867,1285.6516,328.0965,1295.47,328.87" style="stroke:#181818;stroke-width:1.0;"/></g><!--MD5=[665bfcc99aaeb9ba4d25855a3f6ba380]
@startuml
abstract class BaseEntity {
  + Id: Guid
  + BaseEntity()
}

abstract class Person {
  + FirstName: string
  + LastName: string
  + Person(firstName: string, lastName: string)
  + {abstract} GetRole(): string
}

class Manager {
  + Manager(firstName: string, lastName: string)
  + GetRole(): string
}

class Employee {
  + Employee(firstName: string, lastName: string)
  + GetRole(): string
}

class Movie {
  + Title: string
  + Description: string
  + DurationMinutes: int
  + Movie(title: string, description: string, durationMinutes: int)
}

class CinemaHall {
  + Name: string
  + Capacity: int
  + CinemaHall(name: string, capacity: int)
}

class ScheduleItem {
  + Movie: Movie
  + CinemaHall: CinemaHall
  + StartTime: DateTime
  + ScheduleItem(movie: Movie, cinemaHall: CinemaHall, startTime: DateTime)
}

BaseEntity <|- - Person
BaseEntity <|- - Movie
BaseEntity <|- - CinemaHall
BaseEntity <|- - ScheduleItem

Person <|- - Manager
Person <|- - Employee

ScheduleItem - -> Movie
ScheduleItem - -> CinemaHall
@enduml

PlantUML version 1.2022.7(Mon Aug 22 17:01:30 UTC 2022)
(GPL source distribution)
Java Runtime: OpenJDK Runtime Environment
JVM: OpenJDK 64-Bit Server VM
Default Encoding: UTF-8
Language: en
Country: null
--></g></svg>